<?xml version="1.0" encoding="UTF-8" standalone="no"?>
<!DOCTYPE svg PUBLIC "-//W3C//DTD SVG 1.1//EN"
 "http://www.w3.org/Graphics/SVG/1.1/DTD/svg11.dtd">
<!-- Generated by graphviz version 2.38.0 (20140413.2041)
 -->
<!-- Title: language Pages: 1 -->
<svg width="731pt" height="548pt"
 viewBox="0.00 0.00 730.93 548.00" xmlns="http://www.w3.org/2000/svg" xmlns:xlink="http://www.w3.org/1999/xlink">
<g id="graph0" class="graph" transform="scale(1 1) rotate(0) translate(4 544)">
<title>language</title>
<polygon fill="white" stroke="none" points="-4,4 -4,-544 726.925,-544 726.925,4 -4,4"/>
<!-- FORTRAN -->
<g id="node1" class="node"><title>FORTRAN</title>
<ellipse fill="none" stroke="black" cx="127.382" cy="-522" rx="50.7138" ry="18"/>
<text text-anchor="middle" x="127.382" y="-517.8" font-family="Times,serif" font-size="14.00">FORTRAN</text>
</g>
<!-- PLI -->
<g id="node2" class="node"><title>PLI</title>
<ellipse fill="none" stroke="black" cx="204.382" cy="-450" rx="27" ry="18"/>
<text text-anchor="middle" x="204.382" y="-445.8" font-family="Times,serif" font-size="14.00">PLI</text>
</g>
<!-- FORTRAN&#45;&gt;PLI -->
<g id="edge1" class="edge"><title>FORTRAN&#45;&gt;PLI</title>
<path fill="none" stroke="black" d="M145.241,-504.765C155.997,-494.986 169.807,-482.432 181.375,-471.915"/>
<polygon fill="black" stroke="black" points="183.917,-474.335 188.962,-465.018 179.208,-469.155 183.917,-474.335"/>
</g>
<!-- B -->
<g id="node9" class="node"><title>B</title>
<ellipse fill="none" stroke="black" cx="145.382" cy="-306" rx="27" ry="18"/>
<text text-anchor="middle" x="145.382" y="-301.8" font-family="Times,serif" font-size="14.00">B</text>
</g>
<!-- FORTRAN&#45;&gt;B -->
<g id="edge8" class="edge"><title>FORTRAN&#45;&gt;B</title>
<path fill="none" stroke="black" d="M128.824,-503.849C131.938,-466.832 139.31,-379.181 143.078,-334.386"/>
<polygon fill="black" stroke="black" points="146.582,-334.491 143.932,-324.232 139.606,-333.904 146.582,-334.491"/>
</g>
<!-- COBOL -->
<g id="node3" class="node"><title>COBOL</title>
<ellipse fill="none" stroke="black" cx="236.382" cy="-522" rx="40.1576" ry="18"/>
<text text-anchor="middle" x="236.382" y="-517.8" font-family="Times,serif" font-size="14.00">COBOL</text>
</g>
<!-- COBOL&#45;&gt;PLI -->
<g id="edge2" class="edge"><title>COBOL&#45;&gt;PLI</title>
<path fill="none" stroke="black" d="M228.635,-504.055C224.846,-495.767 220.207,-485.618 216.004,-476.424"/>
<polygon fill="black" stroke="black" points="219.177,-474.947 211.836,-467.307 212.811,-477.857 219.177,-474.947"/>
</g>
<!-- ALGOL -->
<g id="node4" class="node"><title>ALGOL</title>
<ellipse fill="none" stroke="black" cx="334.382" cy="-522" rx="40.1403" ry="18"/>
<text text-anchor="middle" x="334.382" y="-517.8" font-family="Times,serif" font-size="14.00">ALGOL</text>
</g>
<!-- ALGOL&#45;&gt;PLI -->
<g id="edge4" class="edge"><title>ALGOL&#45;&gt;PLI</title>
<path fill="none" stroke="black" d="M309.624,-507.669C287.998,-496.024 256.574,-479.104 233.697,-466.785"/>
<polygon fill="black" stroke="black" points="235.24,-463.641 224.776,-461.981 231.921,-469.804 235.24,-463.641"/>
</g>
<!-- ALGOL86 -->
<g id="node5" class="node"><title>ALGOL86</title>
<ellipse fill="none" stroke="black" cx="446.382" cy="-450" rx="48.8273" ry="18"/>
<text text-anchor="middle" x="446.382" y="-445.8" font-family="Times,serif" font-size="14.00">ALGOL86</text>
</g>
<!-- ALGOL&#45;&gt;ALGOL86 -->
<g id="edge3" class="edge"><title>ALGOL&#45;&gt;ALGOL86</title>
<path fill="none" stroke="black" d="M356.777,-507.003C373.126,-496.785 395.537,-482.778 413.856,-471.328"/>
<polygon fill="black" stroke="black" points="415.851,-474.209 422.476,-465.941 412.141,-468.273 415.851,-474.209"/>
</g>
<!-- CPL -->
<g id="node6" class="node"><title>CPL</title>
<ellipse fill="none" stroke="black" cx="276.382" cy="-450" rx="27" ry="18"/>
<text text-anchor="middle" x="276.382" y="-445.8" font-family="Times,serif" font-size="14.00">CPL</text>
</g>
<!-- ALGOL&#45;&gt;CPL -->
<g id="edge5" class="edge"><title>ALGOL&#45;&gt;CPL</title>
<path fill="none" stroke="black" d="M320.93,-504.765C313.4,-495.677 303.885,-484.194 295.584,-474.175"/>
<polygon fill="black" stroke="black" points="298.042,-471.656 288.967,-466.189 292.652,-476.122 298.042,-471.656"/>
</g>
<!-- Pascal -->
<g id="node8" class="node"><title>Pascal</title>
<ellipse fill="none" stroke="black" cx="277.382" cy="-306" rx="32.8994" ry="18"/>
<text text-anchor="middle" x="277.382" y="-301.8" font-family="Times,serif" font-size="14.00">Pascal</text>
</g>
<!-- ALGOL&#45;&gt;Pascal -->
<g id="edge7" class="edge"><title>ALGOL&#45;&gt;Pascal</title>
<path fill="none" stroke="black" d="M330.319,-503.899C326.017,-485.951 318.952,-456.933 312.382,-432 303.437,-398.059 292.421,-359.149 285.165,-333.879"/>
<polygon fill="black" stroke="black" points="288.433,-332.579 282.302,-323.938 281.706,-334.517 288.433,-332.579"/>
</g>
<!-- Simula -->
<g id="node11" class="node"><title>Simula</title>
<ellipse fill="none" stroke="black" cx="396.382" cy="-378" rx="35.3303" ry="18"/>
<text text-anchor="middle" x="396.382" y="-373.8" font-family="Times,serif" font-size="14.00">Simula</text>
</g>
<!-- ALGOL&#45;&gt;Simula -->
<g id="edge12" class="edge"><title>ALGOL&#45;&gt;Simula</title>
<path fill="none" stroke="black" d="M341.737,-504.153C352.411,-479.706 372.293,-434.171 384.905,-405.286"/>
<polygon fill="black" stroke="black" points="388.242,-406.39 389.036,-395.825 381.827,-403.589 388.242,-406.39"/>
</g>
<!-- BCPL -->
<g id="node7" class="node"><title>BCPL</title>
<ellipse fill="none" stroke="black" cx="233.382" cy="-378" rx="32.4498" ry="18"/>
<text text-anchor="middle" x="233.382" y="-373.8" font-family="Times,serif" font-size="14.00">BCPL</text>
</g>
<!-- CPL&#45;&gt;BCPL -->
<g id="edge6" class="edge"><title>CPL&#45;&gt;BCPL</title>
<path fill="none" stroke="black" d="M266.624,-433.116C261.312,-424.469 254.621,-413.575 248.636,-403.833"/>
<polygon fill="black" stroke="black" points="251.615,-401.996 243.399,-395.307 245.651,-405.66 251.615,-401.996"/>
</g>
<!-- BCPL&#45;&gt;B -->
<g id="edge9" class="edge"><title>BCPL&#45;&gt;B</title>
<path fill="none" stroke="black" d="M215.574,-362.834C202.559,-352.482 184.737,-338.306 170.309,-326.828"/>
<polygon fill="black" stroke="black" points="172.273,-323.918 162.268,-320.432 167.915,-329.396 172.273,-323.918"/>
</g>
<!-- C -->
<g id="node10" class="node"><title>C</title>
<ellipse fill="none" stroke="black" cx="145.382" cy="-234" rx="27" ry="18"/>
<text text-anchor="middle" x="145.382" y="-229.8" font-family="Times,serif" font-size="14.00">C</text>
</g>
<!-- Pascal&#45;&gt;C -->
<g id="edge11" class="edge"><title>Pascal&#45;&gt;C</title>
<path fill="none" stroke="black" d="M254.69,-292.967C232.695,-281.303 199.211,-263.546 175.099,-250.759"/>
<polygon fill="black" stroke="black" points="176.516,-247.549 166.042,-245.956 173.237,-253.733 176.516,-247.549"/>
</g>
<!-- B&#45;&gt;C -->
<g id="edge10" class="edge"><title>B&#45;&gt;C</title>
<path fill="none" stroke="black" d="M145.382,-287.697C145.382,-279.983 145.382,-270.712 145.382,-262.112"/>
<polygon fill="black" stroke="black" points="148.882,-262.104 145.382,-252.104 141.882,-262.104 148.882,-262.104"/>
</g>
<!-- ObjectiveC -->
<g id="node13" class="node"><title>ObjectiveC</title>
<ellipse fill="none" stroke="black" cx="50.3817" cy="-162" rx="50.2637" ry="18"/>
<text text-anchor="middle" x="50.3817" y="-157.8" font-family="Times,serif" font-size="14.00">ObjectiveC</text>
</g>
<!-- C&#45;&gt;ObjectiveC -->
<g id="edge14" class="edge"><title>C&#45;&gt;ObjectiveC</title>
<path fill="none" stroke="black" d="M127.957,-220.161C114.489,-210.237 95.54,-196.275 79.7417,-184.634"/>
<polygon fill="black" stroke="black" points="81.4706,-181.56 71.3438,-178.446 77.3182,-187.195 81.4706,-181.56"/>
</g>
<!-- Cpp -->
<g id="node14" class="node"><title>Cpp</title>
<ellipse fill="none" stroke="black" cx="145.382" cy="-162" rx="27" ry="18"/>
<text text-anchor="middle" x="145.382" y="-157.8" font-family="Times,serif" font-size="14.00">Cpp</text>
</g>
<!-- C&#45;&gt;Cpp -->
<g id="edge15" class="edge"><title>C&#45;&gt;Cpp</title>
<path fill="none" stroke="black" d="M145.382,-215.697C145.382,-207.983 145.382,-198.712 145.382,-190.112"/>
<polygon fill="black" stroke="black" points="148.882,-190.104 145.382,-180.104 141.882,-190.104 148.882,-190.104"/>
</g>
<!-- Smalltalk -->
<g id="node12" class="node"><title>Smalltalk</title>
<ellipse fill="none" stroke="black" cx="399.382" cy="-234" rx="44.0078" ry="18"/>
<text text-anchor="middle" x="399.382" y="-229.8" font-family="Times,serif" font-size="14.00">Smalltalk</text>
</g>
<!-- Simula&#45;&gt;Smalltalk -->
<g id="edge13" class="edge"><title>Simula&#45;&gt;Smalltalk</title>
<path fill="none" stroke="black" d="M396.744,-359.871C397.255,-335.67 398.194,-291.211 398.803,-262.393"/>
<polygon fill="black" stroke="black" points="402.306,-262.261 399.019,-252.189 395.308,-262.113 402.306,-262.261"/>
</g>
<!-- Smalltalk&#45;&gt;Cpp -->
<g id="edge18" class="edge"><title>Smalltalk&#45;&gt;Cpp</title>
<path fill="none" stroke="black" d="M359.697,-225.868C315.463,-217.343 242.157,-201.487 181.382,-180 179.476,-179.326 177.535,-178.584 175.593,-177.799"/>
<polygon fill="black" stroke="black" points="176.585,-174.413 166.02,-173.621 173.785,-180.829 176.585,-174.413"/>
</g>
<!-- Eiffel -->
<g id="node17" class="node"><title>Eiffel</title>
<ellipse fill="none" stroke="black" cx="457.382" cy="-162" rx="30.1649" ry="18"/>
<text text-anchor="middle" x="457.382" y="-157.8" font-family="Times,serif" font-size="14.00">Eiffel</text>
</g>
<!-- Smalltalk&#45;&gt;Eiffel -->
<g id="edge19" class="edge"><title>Smalltalk&#45;&gt;Eiffel</title>
<path fill="none" stroke="black" d="M412.834,-216.765C420.259,-207.804 429.614,-196.512 437.833,-186.594"/>
<polygon fill="black" stroke="black" points="440.716,-188.599 444.402,-178.666 435.326,-184.133 440.716,-188.599"/>
</g>
<!-- Ruby -->
<g id="node18" class="node"><title>Ruby</title>
<ellipse fill="none" stroke="black" cx="534.382" cy="-162" rx="29.0429" ry="18"/>
<text text-anchor="middle" x="534.382" y="-157.8" font-family="Times,serif" font-size="14.00">Ruby</text>
</g>
<!-- Smalltalk&#45;&gt;Ruby -->
<g id="edge20" class="edge"><title>Smalltalk&#45;&gt;Ruby</title>
<path fill="none" stroke="black" d="M425.732,-219.337C447.987,-207.797 479.894,-191.253 503.376,-179.077"/>
<polygon fill="black" stroke="black" points="505.288,-182.028 512.555,-174.318 502.066,-175.814 505.288,-182.028"/>
</g>
<!-- Self -->
<g id="node19" class="node"><title>Self</title>
<ellipse fill="none" stroke="black" cx="399.382" cy="-90" rx="27" ry="18"/>
<text text-anchor="middle" x="399.382" y="-85.8" font-family="Times,serif" font-size="14.00">Self</text>
</g>
<!-- Smalltalk&#45;&gt;Self -->
<g id="edge21" class="edge"><title>Smalltalk&#45;&gt;Self</title>
<path fill="none" stroke="black" d="M399.382,-215.871C399.382,-191.67 399.382,-147.211 399.382,-118.393"/>
<polygon fill="black" stroke="black" points="402.882,-118.189 399.382,-108.189 395.882,-118.189 402.882,-118.189"/>
</g>
<!-- Java -->
<g id="node15" class="node"><title>Java</title>
<ellipse fill="none" stroke="black" cx="150.382" cy="-90" rx="27" ry="18"/>
<text text-anchor="middle" x="150.382" y="-85.8" font-family="Times,serif" font-size="14.00">Java</text>
</g>
<!-- Cpp&#45;&gt;Java -->
<g id="edge16" class="edge"><title>Cpp&#45;&gt;Java</title>
<path fill="none" stroke="black" d="M146.618,-143.697C147.169,-135.983 147.831,-126.712 148.445,-118.112"/>
<polygon fill="black" stroke="black" points="151.939,-118.328 149.16,-108.104 144.956,-117.83 151.939,-118.328"/>
</g>
<!-- Csharp -->
<g id="node16" class="node"><title>Csharp</title>
<ellipse fill="none" stroke="black" cx="147.382" cy="-18" rx="35.3216" ry="18"/>
<text text-anchor="middle" x="147.382" y="-13.8" font-family="Times,serif" font-size="14.00">Csharp</text>
</g>
<!-- Java&#45;&gt;Csharp -->
<g id="edge17" class="edge"><title>Java&#45;&gt;Csharp</title>
<path fill="none" stroke="black" d="M149.64,-71.6966C149.31,-63.9827 148.912,-54.7125 148.544,-46.1124"/>
<polygon fill="black" stroke="black" points="152.04,-45.9453 148.115,-36.1043 145.046,-46.2451 152.04,-45.9453"/>
</g>
<!-- E -->
<g id="node24" class="node"><title>E</title>
<ellipse fill="none" stroke="black" cx="227.382" cy="-18" rx="27" ry="18"/>
<text text-anchor="middle" x="227.382" y="-13.8" font-family="Times,serif" font-size="14.00">E</text>
</g>
<!-- Java&#45;&gt;E -->
<g id="edge25" class="edge"><title>Java&#45;&gt;E</title>
<path fill="none" stroke="black" d="M165.964,-74.8345C176.995,-64.8065 191.972,-51.1909 204.374,-39.9158"/>
<polygon fill="black" stroke="black" points="207.041,-42.2221 212.086,-32.9056 202.332,-37.0425 207.041,-42.2221"/>
</g>
<!-- JavaScript -->
<g id="node33" class="node"><title>JavaScript</title>
<ellipse fill="none" stroke="black" cx="319.382" cy="-18" rx="46.8891" ry="18"/>
<text text-anchor="middle" x="319.382" y="-13.8" font-family="Times,serif" font-size="14.00">JavaScript</text>
</g>
<!-- Java&#45;&gt;JavaScript -->
<g id="edge34" class="edge"><title>Java&#45;&gt;JavaScript</title>
<path fill="none" stroke="black" d="M172.787,-79.4218C178.517,-76.9874 184.673,-74.3858 190.382,-72 219.997,-59.6237 253.532,-45.8532 278.986,-35.4511"/>
<polygon fill="black" stroke="black" points="280.386,-38.66 288.321,-31.6392 277.739,-32.1795 280.386,-38.66"/>
</g>
<!-- Self&#45;&gt;JavaScript -->
<g id="edge36" class="edge"><title>Self&#45;&gt;JavaScript</title>
<path fill="none" stroke="black" d="M383.576,-75.1703C372.565,-65.5355 357.636,-52.4723 344.945,-41.3682"/>
<polygon fill="black" stroke="black" points="347.219,-38.7068 337.388,-34.7557 342.609,-43.9748 347.219,-38.7068"/>
</g>
<!-- LISP -->
<g id="node20" class="node"><title>LISP</title>
<ellipse fill="none" stroke="black" cx="343.382" cy="-162" rx="28.0822" ry="18"/>
<text text-anchor="middle" x="343.382" y="-157.8" font-family="Times,serif" font-size="14.00">LISP</text>
</g>
<!-- Scheme -->
<g id="node21" class="node"><title>Scheme</title>
<ellipse fill="none" stroke="black" cx="316.382" cy="-90" rx="38.2024" ry="18"/>
<text text-anchor="middle" x="316.382" y="-85.8" font-family="Times,serif" font-size="14.00">Scheme</text>
</g>
<!-- LISP&#45;&gt;Scheme -->
<g id="edge22" class="edge"><title>LISP&#45;&gt;Scheme</title>
<path fill="none" stroke="black" d="M336.983,-144.411C333.868,-136.335 330.048,-126.431 326.547,-117.355"/>
<polygon fill="black" stroke="black" points="329.786,-116.027 322.922,-107.956 323.255,-118.546 329.786,-116.027"/>
</g>
<!-- Scheme&#45;&gt;JavaScript -->
<g id="edge35" class="edge"><title>Scheme&#45;&gt;JavaScript</title>
<path fill="none" stroke="black" d="M317.123,-71.6966C317.454,-63.9827 317.851,-54.7125 318.22,-46.1124"/>
<polygon fill="black" stroke="black" points="321.717,-46.2451 318.649,-36.1043 314.724,-45.9453 321.717,-46.2451"/>
</g>
<!-- ActorModel -->
<g id="node22" class="node"><title>ActorModel</title>
<ellipse fill="none" stroke="black" cx="243.382" cy="-162" rx="53.1625" ry="18"/>
<text text-anchor="middle" x="243.382" y="-157.8" font-family="Times,serif" font-size="14.00">ActorModel</text>
</g>
<!-- ActorModel&#45;&gt;Scheme -->
<g id="edge23" class="edge"><title>ActorModel&#45;&gt;Scheme</title>
<path fill="none" stroke="black" d="M260.313,-144.765C270.006,-135.47 282.314,-123.668 292.927,-113.491"/>
<polygon fill="black" stroke="black" points="295.498,-115.874 300.294,-106.427 290.654,-110.822 295.498,-115.874"/>
</g>
<!-- Joule -->
<g id="node23" class="node"><title>Joule</title>
<ellipse fill="none" stroke="black" cx="228.382" cy="-90" rx="28.5497" ry="18"/>
<text text-anchor="middle" x="228.382" y="-85.8" font-family="Times,serif" font-size="14.00">Joule</text>
</g>
<!-- ActorModel&#45;&gt;Joule -->
<g id="edge24" class="edge"><title>ActorModel&#45;&gt;Joule</title>
<path fill="none" stroke="black" d="M239.674,-143.697C238.021,-135.983 236.034,-126.712 234.192,-118.112"/>
<polygon fill="black" stroke="black" points="237.565,-117.149 232.047,-108.104 230.72,-118.616 237.565,-117.149"/>
</g>
<!-- Joule&#45;&gt;E -->
<g id="edge26" class="edge"><title>Joule&#45;&gt;E</title>
<path fill="none" stroke="black" d="M228.135,-71.6966C228.024,-63.9827 227.892,-54.7125 227.769,-46.1124"/>
<polygon fill="black" stroke="black" points="231.269,-46.0533 227.626,-36.1043 224.269,-46.1533 231.269,-46.0533"/>
</g>
<!-- NLS -->
<g id="node25" class="node"><title>NLS</title>
<ellipse fill="none" stroke="black" cx="558.382" cy="-522" rx="27" ry="18"/>
<text text-anchor="middle" x="558.382" y="-517.8" font-family="Times,serif" font-size="14.00">NLS</text>
</g>
<!-- Xanadu -->
<g id="node26" class="node"><title>Xanadu</title>
<ellipse fill="none" stroke="black" cx="558.382" cy="-450" rx="37.7179" ry="18"/>
<text text-anchor="middle" x="558.382" y="-445.8" font-family="Times,serif" font-size="14.00">Xanadu</text>
</g>
<!-- NLS&#45;&gt;Xanadu -->
<g id="edge27" class="edge"><title>NLS&#45;&gt;Xanadu</title>
<path fill="none" stroke="black" d="M558.382,-503.697C558.382,-495.983 558.382,-486.712 558.382,-478.112"/>
<polygon fill="black" stroke="black" points="561.882,-478.104 558.382,-468.104 554.882,-478.104 561.882,-478.104"/>
</g>
<!-- WWW -->
<g id="node27" class="node"><title>WWW</title>
<ellipse fill="none" stroke="black" cx="554.382" cy="-378" rx="35.2956" ry="18"/>
<text text-anchor="middle" x="554.382" y="-373.8" font-family="Times,serif" font-size="14.00">WWW</text>
</g>
<!-- Xanadu&#45;&gt;WWW -->
<g id="edge28" class="edge"><title>Xanadu&#45;&gt;WWW</title>
<path fill="none" stroke="black" d="M557.393,-431.697C556.952,-423.983 556.422,-414.712 555.931,-406.112"/>
<polygon fill="black" stroke="black" points="559.424,-405.888 555.359,-396.104 552.435,-406.288 559.424,-405.888"/>
</g>
<!-- HyperCard -->
<g id="node28" class="node"><title>HyperCard</title>
<ellipse fill="none" stroke="black" cx="657.382" cy="-378" rx="49.2946" ry="18"/>
<text text-anchor="middle" x="657.382" y="-373.8" font-family="Times,serif" font-size="14.00">HyperCard</text>
</g>
<!-- Xanadu&#45;&gt;HyperCard -->
<g id="edge29" class="edge"><title>Xanadu&#45;&gt;HyperCard</title>
<path fill="none" stroke="black" d="M578.895,-434.496C592.944,-424.562 611.803,-411.227 627.514,-400.119"/>
<polygon fill="black" stroke="black" points="629.723,-402.843 635.868,-394.212 625.682,-397.127 629.723,-402.843"/>
</g>
<!-- Mosaic -->
<g id="node29" class="node"><title>Mosaic</title>
<ellipse fill="none" stroke="black" cx="554.382" cy="-306" rx="36.2818" ry="18"/>
<text text-anchor="middle" x="554.382" y="-301.8" font-family="Times,serif" font-size="14.00">Mosaic</text>
</g>
<!-- WWW&#45;&gt;Mosaic -->
<g id="edge30" class="edge"><title>WWW&#45;&gt;Mosaic</title>
<path fill="none" stroke="black" d="M554.382,-359.697C554.382,-351.983 554.382,-342.712 554.382,-334.112"/>
<polygon fill="black" stroke="black" points="557.882,-334.104 554.382,-324.104 550.882,-334.104 557.882,-334.104"/>
</g>
<!-- Netscape -->
<g id="node30" class="node"><title>Netscape</title>
<ellipse fill="none" stroke="black" cx="552.382" cy="-234" rx="42.5283" ry="18"/>
<text text-anchor="middle" x="552.382" y="-229.8" font-family="Times,serif" font-size="14.00">Netscape</text>
</g>
<!-- Mosaic&#45;&gt;Netscape -->
<g id="edge31" class="edge"><title>Mosaic&#45;&gt;Netscape</title>
<path fill="none" stroke="black" d="M553.887,-287.697C553.667,-279.983 553.402,-270.712 553.156,-262.112"/>
<polygon fill="black" stroke="black" points="556.655,-262 552.87,-252.104 549.658,-262.2 556.655,-262"/>
</g>
<!-- Spyglass -->
<g id="node31" class="node"><title>Spyglass</title>
<ellipse fill="none" stroke="black" cx="654.382" cy="-234" rx="41.6111" ry="18"/>
<text text-anchor="middle" x="654.382" y="-229.8" font-family="Times,serif" font-size="14.00">Spyglass</text>
</g>
<!-- Mosaic&#45;&gt;Spyglass -->
<g id="edge32" class="edge"><title>Mosaic&#45;&gt;Spyglass</title>
<path fill="none" stroke="black" d="M574.618,-290.834C589.064,-280.722 608.722,-266.962 624.907,-255.632"/>
<polygon fill="black" stroke="black" points="627.302,-258.228 633.487,-249.626 623.287,-252.494 627.302,-258.228"/>
</g>
<!-- InternetExplorer -->
<g id="node32" class="node"><title>InternetExplorer</title>
<ellipse fill="none" stroke="black" cx="654.382" cy="-162" rx="68.5873" ry="18"/>
<text text-anchor="middle" x="654.382" y="-157.8" font-family="Times,serif" font-size="14.00">InternetExplorer</text>
</g>
<!-- Spyglass&#45;&gt;InternetExplorer -->
<g id="edge33" class="edge"><title>Spyglass&#45;&gt;InternetExplorer</title>
<path fill="none" stroke="black" d="M654.382,-215.697C654.382,-207.983 654.382,-198.712 654.382,-190.112"/>
<polygon fill="black" stroke="black" points="657.882,-190.104 654.382,-180.104 650.882,-190.104 657.882,-190.104"/>
</g>
</g>
</svg>
