<?xml version="1.0" encoding="UTF-8" standalone="no"?>
<!DOCTYPE svg PUBLIC "-//W3C//DTD SVG 1.1//EN"
 "http://www.w3.org/Graphics/SVG/1.1/DTD/svg11.dtd">
<!-- Generated by graphviz version 2.38.0 (20140413.2041)
 -->
<!-- Title: language Pages: 1 -->
<svg width="473pt" height="548pt"
 viewBox="0.00 0.00 473.02 548.00" xmlns="http://www.w3.org/2000/svg" xmlns:xlink="http://www.w3.org/1999/xlink">
<g id="graph0" class="graph" transform="scale(1 1) rotate(0) translate(4 544)">
<title>language</title>
<polygon fill="white" stroke="none" points="-4,4 -4,-544 469.021,-544 469.021,4 -4,4"/>
<!-- FORTRAN -->
<g id="node1" class="node"><title>FORTRAN</title>
<ellipse fill="none" stroke="black" cx="50.8567" cy="-522" rx="50.7138" ry="18"/>
<text text-anchor="middle" x="50.8567" y="-517.8" font-family="Times,serif" font-size="14.00">FORTRAN</text>
</g>
<!-- PLI -->
<g id="node2" class="node"><title>PLI</title>
<ellipse fill="none" stroke="black" cx="123.857" cy="-450" rx="27" ry="18"/>
<text text-anchor="middle" x="123.857" y="-445.8" font-family="Times,serif" font-size="14.00">PLI</text>
</g>
<!-- FORTRAN&#45;&gt;PLI -->
<g id="edge1" class="edge"><title>FORTRAN&#45;&gt;PLI</title>
<path fill="none" stroke="black" d="M67.7879,-504.765C77.8201,-495.145 90.6526,-482.84 101.509,-472.43"/>
<polygon fill="black" stroke="black" points="104.201,-474.697 108.996,-465.25 99.3558,-469.645 104.201,-474.697"/>
</g>
<!-- B -->
<g id="node9" class="node"><title>B</title>
<ellipse fill="none" stroke="black" cx="170.857" cy="-306" rx="27" ry="18"/>
<text text-anchor="middle" x="170.857" y="-301.8" font-family="Times,serif" font-size="14.00">B</text>
</g>
<!-- FORTRAN&#45;&gt;B -->
<g id="edge8" class="edge"><title>FORTRAN&#45;&gt;B</title>
<path fill="none" stroke="black" d="M57.1538,-503.969C64.0403,-485.83 75.7225,-456.428 87.8567,-432 104.338,-398.821 109.146,-390.716 129.857,-360 136.629,-349.957 144.675,-339.315 151.838,-330.224"/>
<polygon fill="black" stroke="black" points="154.603,-332.371 158.107,-322.372 149.132,-328.003 154.603,-332.371"/>
</g>
<!-- COBOL -->
<g id="node3" class="node"><title>COBOL</title>
<ellipse fill="none" stroke="black" cx="159.857" cy="-522" rx="40.1576" ry="18"/>
<text text-anchor="middle" x="159.857" y="-517.8" font-family="Times,serif" font-size="14.00">COBOL</text>
</g>
<!-- COBOL&#45;&gt;PLI -->
<g id="edge2" class="edge"><title>COBOL&#45;&gt;PLI</title>
<path fill="none" stroke="black" d="M151.325,-504.411C147.021,-496.042 141.707,-485.71 136.904,-476.37"/>
<polygon fill="black" stroke="black" points="140.013,-474.762 132.327,-467.47 133.788,-477.964 140.013,-474.762"/>
</g>
<!-- ALGOL -->
<g id="node4" class="node"><title>ALGOL</title>
<ellipse fill="none" stroke="black" cx="257.857" cy="-522" rx="40.1403" ry="18"/>
<text text-anchor="middle" x="257.857" y="-517.8" font-family="Times,serif" font-size="14.00">ALGOL</text>
</g>
<!-- ALGOL&#45;&gt;PLI -->
<g id="edge4" class="edge"><title>ALGOL&#45;&gt;PLI</title>
<path fill="none" stroke="black" d="M232.652,-507.834C210.164,-496.086 177.217,-478.875 153.477,-466.473"/>
<polygon fill="black" stroke="black" points="155.04,-463.341 144.555,-461.813 151.798,-469.545 155.04,-463.341"/>
</g>
<!-- ALGOL86 -->
<g id="node5" class="node"><title>ALGOL86</title>
<ellipse fill="none" stroke="black" cx="327.857" cy="-450" rx="48.8273" ry="18"/>
<text text-anchor="middle" x="327.857" y="-445.8" font-family="Times,serif" font-size="14.00">ALGOL86</text>
</g>
<!-- ALGOL&#45;&gt;ALGOL86 -->
<g id="edge3" class="edge"><title>ALGOL&#45;&gt;ALGOL86</title>
<path fill="none" stroke="black" d="M273.741,-505.116C282.741,-496.116 294.174,-484.682 304.211,-474.646"/>
<polygon fill="black" stroke="black" points="306.954,-476.853 311.55,-467.307 302.004,-471.903 306.954,-476.853"/>
</g>
<!-- CPL -->
<g id="node6" class="node"><title>CPL</title>
<ellipse fill="none" stroke="black" cx="195.857" cy="-450" rx="27" ry="18"/>
<text text-anchor="middle" x="195.857" y="-445.8" font-family="Times,serif" font-size="14.00">CPL</text>
</g>
<!-- ALGOL&#45;&gt;CPL -->
<g id="edge5" class="edge"><title>ALGOL&#45;&gt;CPL</title>
<path fill="none" stroke="black" d="M243.788,-505.116C235.475,-495.73 224.818,-483.698 215.665,-473.364"/>
<polygon fill="black" stroke="black" points="218.272,-471.029 209.022,-465.864 213.032,-475.67 218.272,-471.029"/>
</g>
<!-- Pascal -->
<g id="node8" class="node"><title>Pascal</title>
<ellipse fill="none" stroke="black" cx="253.857" cy="-378" rx="32.8994" ry="18"/>
<text text-anchor="middle" x="253.857" y="-373.8" font-family="Times,serif" font-size="14.00">Pascal</text>
</g>
<!-- ALGOL&#45;&gt;Pascal -->
<g id="edge7" class="edge"><title>ALGOL&#45;&gt;Pascal</title>
<path fill="none" stroke="black" d="M257.374,-503.871C256.692,-479.67 255.44,-435.211 254.628,-406.393"/>
<polygon fill="black" stroke="black" points="258.121,-406.087 254.341,-396.189 251.124,-406.284 258.121,-406.087"/>
</g>
<!-- Simula -->
<g id="node11" class="node"><title>Simula</title>
<ellipse fill="none" stroke="black" cx="429.857" cy="-450" rx="35.3303" ry="18"/>
<text text-anchor="middle" x="429.857" y="-445.8" font-family="Times,serif" font-size="14.00">Simula</text>
</g>
<!-- ALGOL&#45;&gt;Simula -->
<g id="edge12" class="edge"><title>ALGOL&#45;&gt;Simula</title>
<path fill="none" stroke="black" d="M286.646,-509.284C316.113,-497.291 361.98,-478.624 393.835,-465.66"/>
<polygon fill="black" stroke="black" points="395.295,-468.845 403.238,-461.833 392.656,-462.361 395.295,-468.845"/>
</g>
<!-- BCPL -->
<g id="node7" class="node"><title>BCPL</title>
<ellipse fill="none" stroke="black" cx="170.857" cy="-378" rx="32.4498" ry="18"/>
<text text-anchor="middle" x="170.857" y="-373.8" font-family="Times,serif" font-size="14.00">BCPL</text>
</g>
<!-- CPL&#45;&gt;BCPL -->
<g id="edge6" class="edge"><title>CPL&#45;&gt;BCPL</title>
<path fill="none" stroke="black" d="M189.932,-432.411C187.079,-424.421 183.586,-414.642 180.373,-405.645"/>
<polygon fill="black" stroke="black" points="183.572,-404.196 176.913,-395.956 176.98,-406.551 183.572,-404.196"/>
</g>
<!-- BCPL&#45;&gt;B -->
<g id="edge9" class="edge"><title>BCPL&#45;&gt;B</title>
<path fill="none" stroke="black" d="M170.857,-359.697C170.857,-351.983 170.857,-342.712 170.857,-334.112"/>
<polygon fill="black" stroke="black" points="174.357,-334.104 170.857,-324.104 167.357,-334.104 174.357,-334.104"/>
</g>
<!-- C -->
<g id="node10" class="node"><title>C</title>
<ellipse fill="none" stroke="black" cx="253.857" cy="-234" rx="27" ry="18"/>
<text text-anchor="middle" x="253.857" y="-229.8" font-family="Times,serif" font-size="14.00">C</text>
</g>
<!-- Pascal&#45;&gt;C -->
<g id="edge11" class="edge"><title>Pascal&#45;&gt;C</title>
<path fill="none" stroke="black" d="M253.857,-359.871C253.857,-335.67 253.857,-291.211 253.857,-262.393"/>
<polygon fill="black" stroke="black" points="257.357,-262.189 253.857,-252.189 250.357,-262.189 257.357,-262.189"/>
</g>
<!-- B&#45;&gt;C -->
<g id="edge10" class="edge"><title>B&#45;&gt;C</title>
<path fill="none" stroke="black" d="M187.255,-291.17C199.498,-280.845 216.409,-266.582 230.127,-255.013"/>
<polygon fill="black" stroke="black" points="232.387,-257.685 237.775,-248.563 227.874,-252.334 232.387,-257.685"/>
</g>
<!-- ObjectiveC -->
<g id="node13" class="node"><title>ObjectiveC</title>
<ellipse fill="none" stroke="black" cx="253.857" cy="-162" rx="50.2637" ry="18"/>
<text text-anchor="middle" x="253.857" y="-157.8" font-family="Times,serif" font-size="14.00">ObjectiveC</text>
</g>
<!-- C&#45;&gt;ObjectiveC -->
<g id="edge14" class="edge"><title>C&#45;&gt;ObjectiveC</title>
<path fill="none" stroke="black" d="M253.857,-215.697C253.857,-207.983 253.857,-198.712 253.857,-190.112"/>
<polygon fill="black" stroke="black" points="257.357,-190.104 253.857,-180.104 250.357,-190.104 257.357,-190.104"/>
</g>
<!-- Cpp -->
<g id="node14" class="node"><title>Cpp</title>
<ellipse fill="none" stroke="black" cx="358.857" cy="-162" rx="27" ry="18"/>
<text text-anchor="middle" x="358.857" y="-157.8" font-family="Times,serif" font-size="14.00">Cpp</text>
</g>
<!-- C&#45;&gt;Cpp -->
<g id="edge15" class="edge"><title>C&#45;&gt;Cpp</title>
<path fill="none" stroke="black" d="M272.629,-220.485C289.128,-209.486 313.334,-193.349 331.902,-180.97"/>
<polygon fill="black" stroke="black" points="333.868,-183.865 340.247,-175.406 329.985,-178.041 333.868,-183.865"/>
</g>
<!-- Smalltalk -->
<g id="node12" class="node"><title>Smalltalk</title>
<ellipse fill="none" stroke="black" cx="398.857" cy="-378" rx="44.0078" ry="18"/>
<text text-anchor="middle" x="398.857" y="-373.8" font-family="Times,serif" font-size="14.00">Smalltalk</text>
</g>
<!-- Simula&#45;&gt;Smalltalk -->
<g id="edge13" class="edge"><title>Simula&#45;&gt;Smalltalk</title>
<path fill="none" stroke="black" d="M422.352,-432.055C418.773,-423.973 414.41,-414.121 410.42,-405.112"/>
<polygon fill="black" stroke="black" points="413.541,-403.515 406.292,-395.789 407.141,-406.35 413.541,-403.515"/>
</g>
<!-- Smalltalk&#45;&gt;Cpp -->
<g id="edge18" class="edge"><title>Smalltalk&#45;&gt;Cpp</title>
<path fill="none" stroke="black" d="M395.604,-359.816C393.644,-349.445 391.1,-335.964 388.857,-324 380.006,-276.798 369.775,-221.796 363.838,-189.835"/>
<polygon fill="black" stroke="black" points="367.264,-189.116 361.997,-179.923 360.382,-190.394 367.264,-189.116"/>
</g>
<!-- Eiffel -->
<g id="node17" class="node"><title>Eiffel</title>
<ellipse fill="none" stroke="black" cx="427.857" cy="-306" rx="30.1649" ry="18"/>
<text text-anchor="middle" x="427.857" y="-301.8" font-family="Times,serif" font-size="14.00">Eiffel</text>
</g>
<!-- Smalltalk&#45;&gt;Eiffel -->
<g id="edge19" class="edge"><title>Smalltalk&#45;&gt;Eiffel</title>
<path fill="none" stroke="black" d="M405.877,-360.055C409.225,-351.973 413.306,-342.121 417.039,-333.112"/>
<polygon fill="black" stroke="black" points="420.307,-334.367 420.901,-323.789 413.84,-331.688 420.307,-334.367"/>
</g>
<!-- Ruby -->
<g id="node18" class="node"><title>Ruby</title>
<ellipse fill="none" stroke="black" cx="312.857" cy="-306" rx="29.0429" ry="18"/>
<text text-anchor="middle" x="312.857" y="-301.8" font-family="Times,serif" font-size="14.00">Ruby</text>
</g>
<!-- Smalltalk&#45;&gt;Ruby -->
<g id="edge20" class="edge"><title>Smalltalk&#45;&gt;Ruby</title>
<path fill="none" stroke="black" d="M379.771,-361.465C367.395,-351.391 351.144,-338.164 337.756,-327.267"/>
<polygon fill="black" stroke="black" points="339.816,-324.431 329.851,-320.832 335.397,-329.86 339.816,-324.431"/>
</g>
<!-- Java -->
<g id="node15" class="node"><title>Java</title>
<ellipse fill="none" stroke="black" cx="358.857" cy="-90" rx="27" ry="18"/>
<text text-anchor="middle" x="358.857" y="-85.8" font-family="Times,serif" font-size="14.00">Java</text>
</g>
<!-- Cpp&#45;&gt;Java -->
<g id="edge16" class="edge"><title>Cpp&#45;&gt;Java</title>
<path fill="none" stroke="black" d="M358.857,-143.697C358.857,-135.983 358.857,-126.712 358.857,-118.112"/>
<polygon fill="black" stroke="black" points="362.357,-118.104 358.857,-108.104 355.357,-118.104 362.357,-118.104"/>
</g>
<!-- Csharp -->
<g id="node16" class="node"><title>Csharp</title>
<ellipse fill="none" stroke="black" cx="358.857" cy="-18" rx="35.3216" ry="18"/>
<text text-anchor="middle" x="358.857" y="-13.8" font-family="Times,serif" font-size="14.00">Csharp</text>
</g>
<!-- Java&#45;&gt;Csharp -->
<g id="edge17" class="edge"><title>Java&#45;&gt;Csharp</title>
<path fill="none" stroke="black" d="M358.857,-71.6966C358.857,-63.9827 358.857,-54.7125 358.857,-46.1124"/>
<polygon fill="black" stroke="black" points="362.357,-46.1043 358.857,-36.1043 355.357,-46.1044 362.357,-46.1043"/>
</g>
</g>
</svg>
